<mxfile host="Electron" agent="Mozilla/5.0 (X11; Linux x86_64) AppleWebKit/537.36 (KHTML, like Gecko) draw.io/24.7.17 Chrome/128.0.6613.36 Electron/32.0.1 Safari/537.36" version="24.7.17">
  <diagram name="Página-1" id="UUcE6TrS-WemIDn9D4_f">
    <mxGraphModel dx="1149" dy="938" grid="0" gridSize="10" guides="1" tooltips="1" connect="1" arrows="1" fold="1" page="0" pageScale="1" pageWidth="827" pageHeight="1169" math="0" shadow="0">
      <root>
        <mxCell id="0" />
        <mxCell id="1" parent="0" />
        <mxCell id="zi6tR1ZH_1-FuNQkelgC-8" style="edgeStyle=orthogonalEdgeStyle;rounded=0;sketch=1;hachureGap=4;jiggle=2;curveFitting=1;orthogonalLoop=1;jettySize=auto;html=1;fontFamily=Architects Daughter;fontSource=https%3A%2F%2Ffonts.googleapis.com%2Fcss%3Ffamily%3DArchitects%2BDaughter;" edge="1" parent="1" source="zi6tR1ZH_1-FuNQkelgC-3" target="zi6tR1ZH_1-FuNQkelgC-7">
          <mxGeometry relative="1" as="geometry" />
        </mxCell>
        <mxCell id="zi6tR1ZH_1-FuNQkelgC-3" value="&lt;h2&gt;Acesso&lt;/h2&gt;" style="rounded=0;whiteSpace=wrap;html=1;sketch=1;hachureGap=4;jiggle=2;curveFitting=1;fontFamily=Architects Daughter;fontSource=https%3A%2F%2Ffonts.googleapis.com%2Fcss%3Ffamily%3DArchitects%2BDaughter;fillColor=none;strokeWidth=1.5748;" vertex="1" parent="1">
          <mxGeometry x="190" y="80" width="90" height="50" as="geometry" />
        </mxCell>
        <mxCell id="zi6tR1ZH_1-FuNQkelgC-4" value="" style="shape=cylinder3;whiteSpace=wrap;html=1;boundedLbl=1;backgroundOutline=1;size=15;sketch=1;hachureGap=4;jiggle=2;curveFitting=1;fontFamily=Architects Daughter;fontSource=https%3A%2F%2Ffonts.googleapis.com%2Fcss%3Ffamily%3DArchitects%2BDaughter;fillColor=none;textShadow=0;fontStyle=1" vertex="1" parent="1">
          <mxGeometry x="10" y="50" width="90" height="100" as="geometry" />
        </mxCell>
        <mxCell id="zi6tR1ZH_1-FuNQkelgC-6" style="edgeStyle=orthogonalEdgeStyle;rounded=0;sketch=1;hachureGap=4;jiggle=2;curveFitting=1;orthogonalLoop=1;jettySize=auto;html=1;entryX=0;entryY=0.5;entryDx=0;entryDy=0;fontFamily=Architects Daughter;fontSource=https%3A%2F%2Ffonts.googleapis.com%2Fcss%3Ffamily%3DArchitects%2BDaughter;" edge="1" parent="1" source="zi6tR1ZH_1-FuNQkelgC-5" target="zi6tR1ZH_1-FuNQkelgC-3">
          <mxGeometry relative="1" as="geometry" />
        </mxCell>
        <mxCell id="zi6tR1ZH_1-FuNQkelgC-5" value="Database" style="text;html=1;align=center;verticalAlign=middle;resizable=0;points=[];autosize=1;strokeColor=none;fillColor=none;fontFamily=Architects Daughter;fontSource=https%3A%2F%2Ffonts.googleapis.com%2Fcss%3Ffamily%3DArchitects%2BDaughter;fontSize=17;textShadow=0;fontStyle=1" vertex="1" parent="1">
          <mxGeometry x="10" y="90" width="90" height="30" as="geometry" />
        </mxCell>
        <mxCell id="zi6tR1ZH_1-FuNQkelgC-10" style="edgeStyle=orthogonalEdgeStyle;rounded=0;sketch=1;hachureGap=4;jiggle=2;curveFitting=1;orthogonalLoop=1;jettySize=auto;html=1;fontFamily=Architects Daughter;fontSource=https%3A%2F%2Ffonts.googleapis.com%2Fcss%3Ffamily%3DArchitects%2BDaughter;" edge="1" parent="1" source="zi6tR1ZH_1-FuNQkelgC-7" target="zi6tR1ZH_1-FuNQkelgC-9">
          <mxGeometry relative="1" as="geometry" />
        </mxCell>
        <mxCell id="zi6tR1ZH_1-FuNQkelgC-7" value="&lt;h2&gt;Python-SQL&lt;/h2&gt;" style="rounded=0;whiteSpace=wrap;html=1;sketch=1;hachureGap=4;jiggle=2;curveFitting=1;fontFamily=Architects Daughter;fontSource=https%3A%2F%2Ffonts.googleapis.com%2Fcss%3Ffamily%3DArchitects%2BDaughter;fillColor=none;strokeWidth=1.5748;fontColor=#7F00FF;strokeColor=#3700CC;fillStyle=auto;" vertex="1" parent="1">
          <mxGeometry x="359" y="80" width="110" height="50" as="geometry" />
        </mxCell>
        <mxCell id="zi6tR1ZH_1-FuNQkelgC-12" style="edgeStyle=orthogonalEdgeStyle;rounded=0;sketch=1;hachureGap=4;jiggle=2;curveFitting=1;orthogonalLoop=1;jettySize=auto;html=1;entryX=0;entryY=0.5;entryDx=0;entryDy=0;fontFamily=Architects Daughter;fontSource=https%3A%2F%2Ffonts.googleapis.com%2Fcss%3Ffamily%3DArchitects%2BDaughter;" edge="1" parent="1" source="zi6tR1ZH_1-FuNQkelgC-9" target="zi6tR1ZH_1-FuNQkelgC-11">
          <mxGeometry relative="1" as="geometry" />
        </mxCell>
        <mxCell id="zi6tR1ZH_1-FuNQkelgC-9" value="&lt;h2&gt;Tratamento&lt;/h2&gt;" style="rounded=0;whiteSpace=wrap;html=1;sketch=1;hachureGap=4;jiggle=2;curveFitting=1;fontFamily=Architects Daughter;fontSource=https%3A%2F%2Ffonts.googleapis.com%2Fcss%3Ffamily%3DArchitects%2BDaughter;fillColor=none;strokeWidth=1.5748;" vertex="1" parent="1">
          <mxGeometry x="510" y="80" width="120" height="50" as="geometry" />
        </mxCell>
        <mxCell id="zi6tR1ZH_1-FuNQkelgC-21" style="edgeStyle=orthogonalEdgeStyle;rounded=0;sketch=1;hachureGap=4;jiggle=2;curveFitting=1;orthogonalLoop=1;jettySize=auto;html=1;fontFamily=Architects Daughter;fontSource=https%3A%2F%2Ffonts.googleapis.com%2Fcss%3Ffamily%3DArchitects%2BDaughter;" edge="1" parent="1" source="zi6tR1ZH_1-FuNQkelgC-11" target="zi6tR1ZH_1-FuNQkelgC-22">
          <mxGeometry relative="1" as="geometry">
            <mxPoint x="725" y="240" as="targetPoint" />
          </mxGeometry>
        </mxCell>
        <mxCell id="zi6tR1ZH_1-FuNQkelgC-11" value="&lt;h2&gt;csv ou db&lt;/h2&gt;" style="rounded=0;whiteSpace=wrap;html=1;sketch=1;hachureGap=4;jiggle=2;curveFitting=1;fontFamily=Architects Daughter;fontSource=https%3A%2F%2Ffonts.googleapis.com%2Fcss%3Ffamily%3DArchitects%2BDaughter;fillColor=none;strokeWidth=1.5748;" vertex="1" parent="1">
          <mxGeometry x="680" y="80" width="90" height="50" as="geometry" />
        </mxCell>
        <mxCell id="zi6tR1ZH_1-FuNQkelgC-13" value="&lt;h2&gt;SQL&lt;/h2&gt;" style="rounded=0;whiteSpace=wrap;html=1;sketch=1;hachureGap=4;jiggle=2;curveFitting=1;fontFamily=Architects Daughter;fontSource=https%3A%2F%2Ffonts.googleapis.com%2Fcss%3Ffamily%3DArchitects%2BDaughter;fillColor=none;strokeWidth=1.5748;fontColor=#999999;strokeColor=#314354;fillStyle=auto;" vertex="1" parent="1">
          <mxGeometry x="369" y="140" width="90" height="50" as="geometry" />
        </mxCell>
        <mxCell id="zi6tR1ZH_1-FuNQkelgC-14" value="&lt;h2&gt;Java&lt;/h2&gt;" style="rounded=0;whiteSpace=wrap;html=1;sketch=1;hachureGap=4;jiggle=2;curveFitting=1;fontFamily=Architects Daughter;fontSource=https%3A%2F%2Ffonts.googleapis.com%2Fcss%3Ffamily%3DArchitects%2BDaughter;fillColor=none;strokeWidth=1.5748;fontColor=#FFFF00;strokeColor=#B09500;fillStyle=auto;" vertex="1" parent="1">
          <mxGeometry x="369" y="20" width="90" height="50" as="geometry" />
        </mxCell>
        <mxCell id="zi6tR1ZH_1-FuNQkelgC-17" value="" style="endArrow=classic;html=1;rounded=0;sketch=1;hachureGap=4;jiggle=2;curveFitting=1;fontFamily=Architects Daughter;fontSource=https%3A%2F%2Ffonts.googleapis.com%2Fcss%3Ffamily%3DArchitects%2BDaughter;entryX=0;entryY=0.5;entryDx=0;entryDy=0;" edge="1" parent="1" target="zi6tR1ZH_1-FuNQkelgC-13">
          <mxGeometry width="50" height="50" relative="1" as="geometry">
            <mxPoint x="269" y="130" as="sourcePoint" />
            <mxPoint x="369" y="180" as="targetPoint" />
          </mxGeometry>
        </mxCell>
        <mxCell id="zi6tR1ZH_1-FuNQkelgC-18" value="" style="endArrow=classic;html=1;rounded=0;sketch=1;hachureGap=4;jiggle=2;curveFitting=1;fontFamily=Architects Daughter;fontSource=https%3A%2F%2Ffonts.googleapis.com%2Fcss%3Ffamily%3DArchitects%2BDaughter;" edge="1" parent="1" target="zi6tR1ZH_1-FuNQkelgC-14">
          <mxGeometry width="50" height="50" relative="1" as="geometry">
            <mxPoint x="280" y="82.5" as="sourcePoint" />
            <mxPoint x="380" y="117.5" as="targetPoint" />
          </mxGeometry>
        </mxCell>
        <mxCell id="zi6tR1ZH_1-FuNQkelgC-19" value="" style="endArrow=classic;html=1;rounded=0;sketch=1;hachureGap=4;jiggle=2;curveFitting=1;fontFamily=Architects Daughter;fontSource=https%3A%2F%2Ffonts.googleapis.com%2Fcss%3Ffamily%3DArchitects%2BDaughter;entryX=0;entryY=0.25;entryDx=0;entryDy=0;" edge="1" parent="1" target="zi6tR1ZH_1-FuNQkelgC-9">
          <mxGeometry width="50" height="50" relative="1" as="geometry">
            <mxPoint x="450" y="45" as="sourcePoint" />
            <mxPoint x="550" y="80" as="targetPoint" />
          </mxGeometry>
        </mxCell>
        <mxCell id="zi6tR1ZH_1-FuNQkelgC-20" value="" style="endArrow=classic;html=1;rounded=0;sketch=1;hachureGap=4;jiggle=2;curveFitting=1;fontFamily=Architects Daughter;fontSource=https%3A%2F%2Ffonts.googleapis.com%2Fcss%3Ffamily%3DArchitects%2BDaughter;entryX=0;entryY=0.75;entryDx=0;entryDy=0;" edge="1" parent="1" target="zi6tR1ZH_1-FuNQkelgC-9">
          <mxGeometry width="50" height="50" relative="1" as="geometry">
            <mxPoint x="459" y="150" as="sourcePoint" />
            <mxPoint x="519" y="198" as="targetPoint" />
          </mxGeometry>
        </mxCell>
        <mxCell id="zi6tR1ZH_1-FuNQkelgC-23" style="edgeStyle=orthogonalEdgeStyle;rounded=0;sketch=1;hachureGap=4;jiggle=2;curveFitting=1;orthogonalLoop=1;jettySize=auto;html=1;fontFamily=Architects Daughter;fontSource=https%3A%2F%2Ffonts.googleapis.com%2Fcss%3Ffamily%3DArchitects%2BDaughter;" edge="1" parent="1" source="zi6tR1ZH_1-FuNQkelgC-22" target="zi6tR1ZH_1-FuNQkelgC-49">
          <mxGeometry relative="1" as="geometry">
            <mxPoint x="594" y="290" as="targetPoint" />
          </mxGeometry>
        </mxCell>
        <mxCell id="zi6tR1ZH_1-FuNQkelgC-22" value="Análise de&lt;div&gt;dados&lt;/div&gt;" style="rounded=0;whiteSpace=wrap;html=1;sketch=1;hachureGap=4;jiggle=2;curveFitting=1;fontFamily=Architects Daughter;fontSource=https%3A%2F%2Ffonts.googleapis.com%2Fcss%3Ffamily%3DArchitects%2BDaughter;fillColor=none;fontSize=19;fontStyle=1;labelBorderColor=none;textShadow=1;fontColor=#7F00FF;strokeColor=#3700CC;strokeWidth=1.5748;" vertex="1" parent="1">
          <mxGeometry x="665" y="260" width="120" height="60" as="geometry" />
        </mxCell>
        <mxCell id="zi6tR1ZH_1-FuNQkelgC-24" value="" style="ellipse;whiteSpace=wrap;html=1;sketch=1;hachureGap=4;jiggle=2;curveFitting=1;fontFamily=Architects Daughter;fontSource=https%3A%2F%2Ffonts.googleapis.com%2Fcss%3Ffamily%3DArchitects%2BDaughter;fillColor=none;fontColor=#ffffff;strokeColor=#A50040;" vertex="1" parent="1">
          <mxGeometry x="300" y="-20" width="360" height="250" as="geometry" />
        </mxCell>
        <mxCell id="zi6tR1ZH_1-FuNQkelgC-25" value="Feature&lt;font&gt;-&lt;/font&gt;Store" style="text;html=1;align=center;verticalAlign=middle;whiteSpace=wrap;rounded=0;fontFamily=Helvetica;fontStyle=1;fontSize=16;fontColor=#A50040;labelBackgroundColor=none;labelBorderColor=none;textShadow=1;" vertex="1" parent="1">
          <mxGeometry x="407" y="-50" width="146" height="30" as="geometry" />
        </mxCell>
        <mxCell id="zi6tR1ZH_1-FuNQkelgC-44" value="&lt;h1 style=&quot;margin-top: 0px;&quot;&gt;&lt;font style=&quot;font-size: 23px;&quot;&gt;Escolha das métricas&lt;/font&gt;&lt;/h1&gt;&lt;p style=&quot;font-size: 17px;&quot;&gt;&lt;font style=&quot;font-size: 17px;&quot;&gt;- Gráficos&lt;/font&gt;&lt;/p&gt;&lt;p style=&quot;font-size: 17px;&quot;&gt;&lt;font style=&quot;font-size: 17px;&quot;&gt;- Dados estatísticos&lt;/font&gt;&lt;/p&gt;" style="text;html=1;whiteSpace=wrap;overflow=hidden;rounded=0;fontFamily=Architects Daughter;fontSource=https%3A%2F%2Ffonts.googleapis.com%2Fcss%3Ffamily%3DArchitects%2BDaughter;" vertex="1" parent="1">
          <mxGeometry x="667" y="323" width="195" height="150" as="geometry" />
        </mxCell>
        <mxCell id="zi6tR1ZH_1-FuNQkelgC-48" value="∞" style="text;whiteSpace=wrap;fontFamily=Architects Daughter;fontSource=https%3A%2F%2Ffonts.googleapis.com%2Fcss%3Ffamily%3DArchitects%2BDaughter;fontSize=30;" vertex="1" parent="1">
          <mxGeometry x="134" y="-12" width="30" height="45" as="geometry" />
        </mxCell>
        <mxCell id="zi6tR1ZH_1-FuNQkelgC-49" value="&lt;font style=&quot;font-size: 16px;&quot;&gt;&lt;b&gt;Dashboard&lt;/b&gt;&lt;/font&gt;" style="rounded=1;whiteSpace=wrap;html=1;sketch=1;hachureGap=4;jiggle=2;curveFitting=1;fontFamily=Architects Daughter;fontSource=https%3A%2F%2Ffonts.googleapis.com%2Fcss%3Ffamily%3DArchitects%2BDaughter;fillColor=none;strokeWidth=1.5748;" vertex="1" parent="1">
          <mxGeometry x="433" y="260" width="120" height="60" as="geometry" />
        </mxCell>
      </root>
    </mxGraphModel>
  </diagram>
</mxfile>
